<?xml version="1.0" standalone="no"?><!DOCTYPE svg PUBLIC "-//W3C//DTD SVG 1.1//EN" "http://www.w3.org/Graphics/SVG/1.1/DTD/svg11.dtd"><svg t="1512272007470" class="icon" style="" viewBox="0 0 1024 1024" version="1.1" xmlns="http://www.w3.org/2000/svg" p-id="6142" xmlns:xlink="http://www.w3.org/1999/xlink" width="16" height="16"><defs><style type="text/css"></style></defs><path d="M937.251969 659.850911c4.93639 3.792593 9.692181 7.765785 14.387772 11.678777 31.424339 25.885949 43.885714 40.273721 45.330511 41.778718l0 0 0 0 0 0c0 0 2.708995 3.190594 5.35779 6.381188 1.384597 1.625397 2.829394 3.310994 3.852792 4.575191 0.722399 0.842798 1.203998 1.504997 1.625397 1.986596 0.902998 1.083598 1.444797 2.167196 2.106996 3.250794l6.621987 9.631981 0 0.963198c13.183774 26.367549 3.973192 61.042681-4.213992 78.560847-14.387772 31.002939-41.598119 62.367078-62.306878 81.450441-41.598119 38.347325-98.547208 82.293239-169.763668 82.293239-7.344386 0-14.929571-0.541799-22.514756-1.384597-51.771899-6.501587-131.115344-37.745326-217.321576-85.604233-93.671017-52.012698-184.031041-117.449971-254.404703-184.27184C215.696179 644.319342 146.707113 558.534509 91.804821 469.559083 41.236919 387.446443 8.247384 311.835391 1.264198 262.110288c-4.514991-32.568136 3.551793-68.748266 23.297354-104.747795 17.758965-32.086537 44.126514-63.089477 76.333451-89.577425C102.821399 66.159671 104.687596 64.654674 106.553792 63.089477c24.802352-20.46796 46.17331-38.166725 81.75144-51.4107 12.461376-5.23739 24.260553-7.825985 35.87913-7.825985 10.775779 0 21.431158 2.227396 31.966138 6.621987l0.481599 0.2408C261.32769 12.882775 269.093474 16.916167 271.14027 18.059965c6.140388 2.889594 39.551323 20.58836 76.57425 69.771664C359.513698 103.543798 378.175661 130.091946 391.720635 153.148501 414.53639 191.977425 429.405761 225.50876 430.06796 226.953557L430.429159 227.916755l2.829394 8.608583c9.631981 24.380952 3.973192 49.604703-15.049971 67.785068-1.023398 1.083598-2.407995 2.407995-2.407995 2.407995L414.175191 308.343798 412.971193 309.126396C412.188595 309.788595 410.563198 311.112992 409.6 312.07619c-2.829394 2.407995-3.852792 3.190594-4.815991 3.852792L403.941211 316.530982C391.720635 324.597766 387.326044 327.005761 382.630453 329.534156 379.500059 331.219753 376.249265 333.02575 369.205879 337.480541L368.84468 337.661141c-12.039976 7.223986-23.538154 11.738977-35.578131 16.615168C323.694768 358.068901 312.979189 362.343092 299.795414 368.72428c-18.842563 9.150382-19.564962 35.337331-15.59177 43.945914 23.176955 51.832099 64.413874 104.145797 133.764139 169.944268 61.163081 57.972487 121.122163 95.176014 171.810464 123.770958 6.200588 3.551793 12.280776 5.17719 18.601764 5.17719 17.879365 0 35.156731-13.785773 42.802116-27.691946 6.019988-10.534979 11.558377-21.611758 16.434568-31.364139 3.912992-7.886185 7.705585-15.47137 11.377778-21.972957l0-0.1806c8.909583-16.013169 15.59177-26.307349 19.564962-32.086537 2.769195-4.093592 5.478189-8.126984 8.668783-11.437978 7.825985-10.896179 19.926161-20.046561 32.808936-24.501352 7.344386-2.468195 15.772369-3.792593 24.260553-3.792593 11.257378 0 21.852557 2.227396 30.099941 6.320988l22.093357 11.016578 0 0c1.625397 0.963198 3.310994 1.986596 5.35779 3.190594 2.407995 1.504997 5.959788 3.672193 10.41458 6.501587 8.006584 4.99659 20.70876 13.183774 35.93933 23.237155 2.648795 1.745797 5.23739 3.491593 8.006584 5.35779L937.251969 659.850911zM739.916755 617.590594c-1.625397 1.986596-9.330982 12.521576-21.671958 34.614932-3.190594 5.839389-6.682187 12.942975-10.655379 20.46796-5.05679 10.23398-10.896179 21.792357-17.217166 33.230335-14.207172 25.283951-44.909112 50.748501-81.99224 50.748501-14.146972 0-27.872546-3.732393-40.695121-11.076778-53.096296-29.979541-116.005173-68.989065-180.599647-130.332745C313.340388 545.290535 268.973075 488.522046 243.207525 431.091358 236.585538 416.221987 235.44174 396.416226 240.49853 378.055262c5.899588-22.454556 20.046561-40.032922 39.671723-49.604703C294.738624 321.286772 306.357202 316.651382 316.651382 312.55779c11.197178-4.454791 20.046561-8.006584 28.956143-13.304174 8.006584-4.99659 12.039976-7.223986 15.53157-9.090182C364.991887 287.996238 368.42328 286.130041 378.356261 279.688654c0.541799-0.481599 1.324397-1.203998 2.167196-1.866196 2.046796-1.745797 3.371193-2.889594 4.394591-3.732393 0.541799-0.601999 1.324397-1.264198 1.926396-1.986596l0.361199-0.2408c5.959788-5.598589 7.284186-11.738977 4.213992-19.203762L390.938036 251.274309l-2.407995-7.163786C386.061846 238.632334 372.456673 208.893592 353.012111 175.904056 342.597531 158.205291 326.524162 134.245738 311.895591 114.801176c-31.002939-41.17672-58.454086-55.504292-60.199882-56.40729L250.73251 57.912287C247.481717 56.28689 241.461728 53.216696 238.391534 51.832099 233.515344 49.785303 228.879953 48.822105 224.184362 48.822105c-5.658789 0-11.618577 1.444797-18.782363 4.454791L204.318401 53.698295C175.603057 64.233275 158.62669 78.320047 135.148736 97.764609 133.22234 99.269606 131.356143 100.834803 129.369547 102.4602 72.119459 149.536508 39.250323 209.73639 45.631511 255.8495 51.711699 299.012816 83.256437 370.108877 130.031746 446.020929c52.855497 85.724633 119.255967 168.258671 186.920635 232.612346s154.773898 127.322751 245.254321 177.469253c80.186243 44.608113 155.556496 74.587654 201.248207 80.366843 5.658789 0.722399 11.257378 1.083598 16.795767 1.083598 43.524515 0 86.386831-21.671958 139.302528-70.433862 16.735567-15.41117 40.394121-42.260317 52.133098-67.363668 6.742387-14.568372 8.789183-33.892534 4.033392-40.574721l-4.033392-5.779189 0-0.1806-0.481599-0.601999c-1.745797-2.287596-5.35779-6.501587-8.427984-9.99318-0.1204-0.0602-11.437978-13.003175-39.852322-36.601529-26.849148-22.153557-57.370488-45.029512-79.524045-59.658083-25.103351-16.554968-43.825514-28.293945-47.858907-30.64174l-21.310758-10.655379c-1.023398-0.541799-4.635391-1.565197-10.05338-1.565197-3.551793 0-7.103586 0.481599-9.571781 1.324397-5.11699 1.745797-9.932981 6.260788-11.317578 8.789183L739.916755 617.590594" p-id="6143"></path></svg>